<svg xmlns="http://www.w3.org/2000/svg" width="100%" height="100%" viewBox="0 0 83 97"><g transform="translate(-20 -16)"><g transform="translate(32 -9.213)" fill="#fff"><path d="M 70.25009918212891 121.4628067016602 L 0.7499995827674866 121.4628067016602 L 0.7499995827674866 25.96350288391113 L 48.40911865234375 25.96350288391113 L 70.25009918212891 47.80377197265625 L 70.25009918212891 121.4628067016602 Z" stroke="none"/><path d="M 69.50009918212891 120.7128143310547 L 69.50009918212891 48.11442947387695 L 48.09846496582031 26.7135066986084 L 1.500009536743164 26.7135066986084 L 1.500009536743164 120.7128143310547 L 69.50009918212891 120.7128143310547 M 71.00009918212891 122.2138137817383 L 71.00009918212891 122.2128143310547 L 9.591064554115292e-06 122.2128143310547 L 9.591064554115292e-06 25.2135066986084 L 48.71976852416992 25.2135066986084 L 71.00009918212891 47.49309539794922 L 71.00009918212891 122.2128143310547 L 71.00009918212891 122.2138137817383 Z" stroke="none" fill="#707070"/></g><line y1="22" transform="translate(80.5 16.5)" fill="none" stroke="#707070" stroke-width="1.5"/><line x2="22.5" transform="translate(79.75 38.5)" fill="none" stroke="#707070" stroke-width="1.5"/><rect width="25" height="2.2" rx="0.3" transform="translate(70 74)" fill="#05308f"/><rect width="25" height="2.2" rx="0.3" transform="translate(70 67)" fill="#005abf"/><rect width="25" height="2.2" rx="0.3" transform="translate(70 60)" fill="#1984cf"/><rect width="25" height="2.2" rx="0.3" transform="translate(70 53)" fill="#38abea"/><rect width="48" height="49" rx="4.5" transform="translate(20 40.25)" fill="#005cc3"/><text transform="translate(28 78)" fill="#fff" font-size="37.2" font-family="InaiMathi-Bold, InaiMathi" font-weight="700" letter-spacing="-0.001em"><tspan x="0" y="0">W</tspan></text></g></svg>