<svg xmlns="http://www.w3.org/2000/svg" width="100%" height="100%" viewBox="0 0 78.896 97.001"><g transform="translate(36.076 -93.732)"><g transform="translate(-36.076 93.732)"><path d="M-43.53,183.976A10.034,10.034,0,0,0-53.548,194v76.958A10.034,10.034,0,0,0-43.53,280.976H15.317a10.034,10.034,0,0,0,10.018-10.021V207.674a8.3,8.3,0,0,0-.647-3.656,10.131,10.131,0,0,0-1.983-2.867l-.009-.012L8.1,186.818l-.024-.024a11.551,11.551,0,0,0-3.094-1.98,11.308,11.308,0,0,0-4.418-.835l.033,0Z" transform="translate(53.548 -183.976)" fill="#ff2116"/><path d="M-43.679,187.119H.477a9.4,9.4,0,0,1,3.055.571,8.373,8.373,0,0,1,2.129,1.345l.006.006L20.23,203.329a8.036,8.036,0,0,1,1.3,1.88,7.136,7.136,0,0,1,.364,2.177q0,.035,0,.07v63.351a6.676,6.676,0,0,1-6.726,6.729H-43.679a6.676,6.676,0,0,1-6.726-6.729V193.848a6.676,6.676,0,0,1,6.726-6.729Z" transform="translate(53.697 -183.827)" fill="#fff"/><path d="M-34.707,240.883c-2.265-2.265.186-5.377,6.836-8.682l4.184-2.079,1.63-3.567c.9-1.962,2.235-5.162,2.974-7.113l1.343-3.546-.926-2.624c-1.138-3.227-1.544-8.076-.822-9.82.978-2.362,4.183-2.12,5.451.412.991,1.977.89,5.558-.285,10.074l-.963,3.7.848,1.44a49.973,49.973,0,0,0,3.028,4.178l2.253,2.8,2.8-.366c8.907-1.162,11.958.813,11.958,3.646,0,3.575-6.994,3.87-12.867-.255a17.838,17.838,0,0,1-2.229-1.85s-3.679.749-5.491,1.237c-1.87.5-2.8.82-5.542,1.744,0,0-.961,1.4-1.587,2.41-2.33,3.775-5.05,6.9-6.993,8.042-2.175,1.275-4.456,1.362-5.6.214Zm3.554-1.27c1.273-.787,3.85-3.834,5.634-6.663l.722-1.145-3.288,1.653c-5.079,2.554-7.4,4.96-6.194,6.416.679.818,1.491.75,3.127-.261Zm32.989-9.26a1.911,1.911,0,0,0-.343-3.338c-1.1-.551-1.979-.665-4.825-.623-1.749.119-4.561.472-5.038.579,0,0,1.545,1.068,2.231,1.46a29.647,29.647,0,0,0,4.752,1.986c1.6.489,2.522.438,3.223-.064Zm-13.265-5.513a32.548,32.548,0,0,1-2.848-3.674,20.472,20.472,0,0,1-1.6-2.377s-.777,2.5-1.414,4l-1.988,4.914-.576,1.115s3.065-1,4.624-1.412c1.651-.431,5-1.09,5-1.09ZM-15.7,207.7c.192-1.613.274-3.224-.244-4.036-1.438-1.572-3.173-.261-2.879,3.475a25.485,25.485,0,0,0,.829,4.73l.759,2.408.534-1.813a47.588,47.588,0,0,0,1-4.763Z" transform="translate(54.404 -183.129)" fill="#ff2116"/><g transform="translate(23.548 68.241)"><path d="M-8.593,249.125H-.346v1.969H-6.134v4.439H-1.5V257.5H-6.134v6.473H-8.593Z" transform="translate(32.134 -249.125)" fill="#2c2c2c"/><path d="M-20.547,249.125h3.34a7.549,7.549,0,0,1,3.873.859,5.344,5.344,0,0,1,2.2,2.557,9.2,9.2,0,0,1,.751,3.764,10.507,10.507,0,0,1-.674,3.884,6.176,6.176,0,0,1-2.045,2.741,6.358,6.358,0,0,1-3.916,1.044h-3.525Zm2.459,1.969v10.911h1.023a3.444,3.444,0,0,0,3.111-1.48,7.2,7.2,0,0,0,.968-3.971q0-5.461-4.08-5.461Z" transform="translate(31.567 -249.125)" fill="#2c2c2c"/><path d="M-31.067,249.125h3.677a9.993,9.993,0,0,1,2.861.337,3.359,3.359,0,0,1,1.849,1.469,4.827,4.827,0,0,1,.751,2.731,4.965,4.965,0,0,1-.609,2.524,3.577,3.577,0,0,1-1.643,1.523,8,8,0,0,1-3.155.468h-1.273v5.8h-2.459Zm2.459,1.9v5.178h1.218a3.208,3.208,0,0,0,2.252-.609,2.658,2.658,0,0,0,.631-1.98,2.972,2.972,0,0,0-.413-1.654,1.7,1.7,0,0,0-.914-.783,5.717,5.717,0,0,0-1.556-.152Z" transform="translate(31.067 -249.125)" fill="#2c2c2c"/></g></g></g></svg>